<svg xmlns="http://www.w3.org/2000/svg" enable-background="new 0 0 32 32" viewBox="0 0 32 32" id="customer-care">
  <path d="M22.606 17.599C24.613 18.569 26 20.621 26 23v6.5c0 .276-.224.5-.5.5h-19C6.224 30 6 29.776 6 29.5V23c0-2.379 1.387-4.431 3.394-5.401.215-.104.476-.027.616.166L15 24.625v-3.316l-.933-1.578C13.876 19.408 14.109 19 14.484 19h3.033c.375 0 .608.408.417.731L17 21.309v3.316l4.989-6.861C22.13 17.572 22.391 17.495 22.606 17.599zM25 11c0 1.582-.417 3.139-1.205 4.501C23.617 15.81 23.287 16 22.93 16l-2.819 0c-.275.305-.668.5-1.111.5-.828 0-1.5-.672-1.5-1.5s.672-1.5 1.5-1.5c.443 0 .836.195 1.111.5l2.215 0C22.769 13.068 23 12.042 23 11c0-3.86-3.14-7-7-7-3.196 0-5.983 2.158-6.779 5.249C9.18 9.406 9 10.139 9 10.139s0 2.225 0 2.753c0 .553-.448 1.005-1 1.005-1.14 0-2-.816-2-1.898v-2c0-.926.633-1.708 1.489-1.934C8.728 4.461 12.131 2 16 2 20.962 2 25 6.038 25 11z"></path>
  <path d="M22,11c0,0.402-0.041,0.805-0.12,1.198c-0.109,0.542-0.638,0.894-1.178,0.782c-0.542-0.11-0.892-0.638-0.782-1.179C19.973,11.539,20,11.269,20,11c0-0.392-0.074-0.763-0.18-1.121c-1.241-0.252-2.002-0.914-2.413-1.81C16.706,9.222,15.449,10,14,10h-1.858C12.058,10.322,12,10.653,12,11c0,1.895,1.345,3.544,3.199,3.921c0.541,0.109,0.891,0.638,0.781,1.179c-0.109,0.538-0.635,0.891-1.179,0.78C12.019,16.315,10,13.842,10,11c0-3.309,2.691-6,6-6S22,7.691,22,11z"></path>
</svg>
